<svg xmlns="http://www.w3.org/2000/svg" version="1.1" xmlns:xlink="http://www.w3.org/1999/xlink" width="512" height="512" x="0" y="0" viewBox="0 0 64 64" style="enable-background:new 0 0 512 512" xml:space="preserve" class=""><g><path d="M18.7 23a1.7 1.7 0 0 0-1.063 3.03l1.812 1.45a28.386 28.386 0 0 1-.434-4.48ZM3 57v4h6V47.206A11.019 11.019 0 0 0 3 57ZM17.426 9.266a4.525 4.525 0 0 1 .1 3.617 2.573 2.573 0 0 0 .087 2.1l1.665 3.329a.961.961 0 0 1 .17-.147l6.687-4.458A10.149 10.149 0 0 1 31.779 12a8.215 8.215 0 0 0 5.111-1.793l2.485-1.989a1.008 1.008 0 0 1 .778-.207 1 1 0 0 1 .678.433l2.321 3.481a10.969 10.969 0 0 1 1.748 4.669l.87-2.391A8.349 8.349 0 0 0 37.923 3h-8.489a31.863 31.863 0 0 0-15.012 3.753l.3.1a4.526 4.526 0 0 1 2.704 2.413ZM28 27a1 1 0 0 0 1-1v-3h-4v3a1 1 0 0 0 1 1ZM38 27a1 1 0 0 0 1-1v-3h-4v3a1 1 0 0 0 1 1Z" fill="#ffffff" opacity="1" data-original="#000000" class=""></path><path d="M43 18.027a8.968 8.968 0 0 0-1.511-4.992l-1.716-2.574-1.633 1.308A10.217 10.217 0 0 1 31.779 14a8.154 8.154 0 0 0-4.537 1.373L21 19.535V21h9a1 1 0 0 1 1 1v1h2v-1a1 1 0 0 1 1-1h9ZM21.015 23a26.2 26.2 0 0 0 3.711 13h14.547a26.2 26.2 0 0 0 3.71-13H41v3a3 3 0 0 1-3 3h-2a3 3 0 0 1-3-3v-1h-2v1a3 3 0 0 1-3 3h-2a3 3 0 0 1-3-3v-3ZM55 47.206V61h6v-4a11.02 11.02 0 0 0-6-9.794ZM50 38H14a3 3 0 0 0-3 3v20h42V41a3 3 0 0 0-3-3Zm-15.8 1.4 1.6 1.2-6 8-1.6-1.2Zm-7.492 7.893-1.415 1.415-4-4a1 1 0 0 1 0-1.415l4-4 1.415 1.415L23.414 44ZM32 58a4 4 0 1 1 4-4 4 4 0 0 1-4 4Zm10.707-13.293-4 4-1.415-1.415L40.585 44l-3.293-3.293 1.415-1.415 4 4a1 1 0 0 1 0 1.415Z" fill="#ffffff" opacity="1" data-original="#000000" class=""></path><path d="M32 52a2 2 0 1 0 2 2 2 2 0 0 0-2-2ZM44.983 23a28.152 28.152 0 0 1-.435 4.48l1.813-1.45A1.7 1.7 0 0 0 45.3 23Z" fill="#ffffff" opacity="1" data-original="#000000" class=""></path></g></svg>